<?xml version="1.0" standalone="no"?>
<!DOCTYPE svg PUBLIC "-//W3C//DTD SVG 20010904//EN"
 "http://www.w3.org/TR/2001/REC-SVG-20010904/DTD/svg10.dtd">
<svg version="1.0" xmlns="http://www.w3.org/2000/svg"
 width="1200.000000pt" height="1200.000000pt" viewBox="0 0 1200.000000 1200.000000"
 preserveAspectRatio="xMidYMid meet">
<metadata>
Created by potrace 1.14, written by Peter Selinger 2001-2017
</metadata>
<g transform="translate(0.000000,1200.000000) scale(0.100000,-0.100000)"
fill="#000000" stroke="none">
<path d="M6058 11625 c-2 -1 -41 -6 -88 -9 -47 -4 -92 -9 -100 -11 -8 -2 -37
-6 -65 -10 -27 -3 -102 -17 -165 -31 -63 -15 -124 -28 -135 -30 -59 -11 -285
-81 -535 -166 -96 -33 -179 -61 -185 -62 -5 -2 -17 -6 -25 -9 -84 -35 -291
-98 -405 -123 -91 -20 -403 -28 -495 -13 -30 5 -68 11 -85 14 -16 2 -57 12
-90 21 -33 8 -67 17 -75 19 -27 6 -119 44 -181 76 l-61 30 7 -58 c8 -70 21
-142 36 -197 6 -23 13 -50 15 -62 8 -46 109 -268 156 -342 l20 -32 -32 2 c-27
2 -42 14 -85 68 -29 36 -63 87 -77 114 l-24 48 2 -59 c1 -32 5 -75 8 -96 3
-20 4 -37 2 -37 -1 0 -17 5 -33 11 -22 7 -32 18 -36 37 -3 15 -12 64 -20 109
-9 45 -19 101 -22 125 -4 24 -8 44 -10 46 -7 7 -95 -164 -118 -230 -9 -25 -27
-23 -104 14 -68 31 -129 73 -212 142 -24 20 -45 35 -47 33 -2 -2 12 -43 30
-93 68 -181 99 -254 185 -435 37 -80 40 -92 36 -150 -6 -83 -7 -268 -1 -296 3
-12 7 -50 11 -85 4 -34 7 -65 8 -68 1 -3 -16 -30 -39 -60 -88 -120 -163 -263
-214 -411 -17 -51 -33 -100 -35 -108 -3 -9 -11 -41 -19 -71 -9 -30 -18 -71
-21 -90 -3 -20 -8 -47 -10 -60 -3 -14 -7 -43 -10 -65 -3 -22 -7 -58 -10 -80
-12 -92 -19 -307 -19 -560 0 -300 5 -378 40 -600 20 -134 115 -437 182 -585
11 -25 28 -63 38 -85 12 -26 18 -66 18 -117 l1 -77 -55 0 c-62 0 -104 -17
-148 -62 -30 -31 -68 -117 -76 -174 -19 -129 -29 -290 -29 -465 0 -319 20
-387 209 -675 29 -44 64 -93 79 -109 120 -129 260 -341 373 -562 27 -53 93
-118 147 -144 48 -23 129 -26 192 -6 18 5 35 7 38 4 3 -2 23 -58 46 -124 23
-65 63 -175 91 -244 56 -141 69 -173 71 -180 5 -21 94 -192 119 -228 33 -48
112 -129 244 -252 214 -199 301 -279 328 -302 18 -15 29 -36 32 -58 2 -19 6
-54 9 -78 17 -144 29 -273 41 -467 11 -187 10 -210 -6 -209 -8 0 -46 4 -85 9
-122 14 -230 5 -305 -27 -105 -45 -194 -98 -315 -188 -217 -162 -346 -237
-486 -284 -70 -23 -103 -28 -289 -41 -233 -16 -359 -119 -377 -309 -6 -62 -7
-64 -37 -71 -31 -6 -383 -71 -441 -81 -72 -12 -265 -68 -349 -101 -107 -42
-290 -132 -294 -144 -2 -5 -8 -9 -14 -9 -9 0 -104 -60 -142 -90 -246 -195
-406 -387 -543 -650 -71 -136 -154 -345 -183 -460 -6 -25 -13 -53 -16 -62 -5
-17 248 -18 5210 -18 3056 0 5216 4 5216 9 0 39 -72 283 -119 406 -51 130
-188 363 -272 460 -115 133 -289 280 -434 367 -250 150 -590 267 -978 338 -62
11 -123 22 -137 25 -46 9 -105 18 -121 19 -13 0 -18 15 -22 71 -11 137 -70
235 -182 300 -61 36 -148 51 -400 70 -177 13 -316 86 -505 265 -136 128 -176
159 -255 197 -105 49 -207 62 -332 40 -54 -9 -111 -20 -126 -23 l-28 -7 5 119
c4 66 8 144 11 174 2 30 7 89 10 130 4 41 8 89 10 105 3 17 7 62 10 100 11
138 1 121 135 235 120 103 453 441 478 485 46 84 101 205 152 335 29 74 58
149 65 165 7 17 32 88 56 158 42 125 44 128 69 122 14 -3 55 -8 92 -12 56 -5
73 -2 113 17 84 40 131 102 255 333 39 72 187 294 203 304 22 14 103 116 153
193 70 107 73 113 81 130 3 8 14 26 23 40 21 31 71 155 76 189 28 191 23 558
-11 771 -19 124 -108 230 -192 230 -18 0 -33 3 -33 8 0 4 12 48 25 97 14 50
28 105 31 124 3 18 14 81 23 140 14 80 17 149 15 281 -1 96 -5 187 -7 201 -14
78 -30 145 -37 154 -19 27 -17 65 10 155 29 100 75 295 85 365 3 23 7 50 9 60
34 175 22 499 -24 690 -12 50 -23 97 -25 105 -13 57 -79 216 -143 340 -39 75
-205 337 -222 350 -3 3 -26 30 -49 60 -60 76 -183 211 -264 289 -141 136 -287
225 -425 259 l-72 17 52 52 c82 81 142 97 221 59 30 -15 29 -13 -11 23 -39 36
-47 39 -92 37 -38 -1 -61 -10 -97 -35 -48 -33 -48 -33 -23 -5 13 16 83 89 155
162 l130 133 -55 -27 c-83 -40 -169 -105 -228 -170 -47 -53 -52 -56 -46 -30 4
16 13 41 20 55 8 14 14 31 14 36 0 10 49 141 74 200 25 56 48 126 44 131 -14
13 -107 -132 -155 -242 -18 -39 -37 -99 -44 -133 -7 -33 -15 -61 -19 -61 -3 0
-6 79 -7 177 -2 97 -4 178 -6 180 -2 2 -14 -38 -26 -89 -21 -92 -28 -150 -30
-238 l-1 -45 -35 53 c-77 117 -233 286 -333 362 -18 14 -45 35 -60 48 -43 36
-201 142 -212 142 -6 0 -10 3 -10 8 0 4 -10 12 -23 18 -12 6 -60 30 -107 55
-47 24 -87 44 -90 44 -3 1 -18 7 -35 14 -118 51 -271 98 -374 116 -19 3 -37 8
-41 10 -3 2 -34 6 -69 10 -34 4 -72 9 -84 11 -23 5 -334 13 -339 9z"/>
</g>
</svg>
